<?xml version="1.0" encoding="UTF-8" standalone="no"?>
<!DOCTYPE svg PUBLIC "-//W3C//DTD SVG 1.1//EN" "http://www.w3.org/Graphics/SVG/1.1/DTD/svg11.dtd">
<svg width="100%" height="100%" viewBox="0 0 140 120" version="1.1" xmlns="http://www.w3.org/2000/svg" xmlns:xlink="http://www.w3.org/1999/xlink" xml:space="preserve" xmlns:serif="http://www.serif.com/" style="fill-rule:evenodd;clip-rule:evenodd;stroke-linejoin:round;stroke-miterlimit:2;">
    <g transform="matrix(1,0,0,1,-1160,-90)">
        <g id="Original">
        </g>
        <g id="Export">
            <g id="_-" serif:id="$">
            </g>
            <g id="_-1" serif:id="-">
            </g>
            <g id=":">
            </g>
            <g id="_9" serif:id="9">
            </g>
            <g transform="matrix(1,0,0,1,110,-50)">
                <g id="_8" serif:id="8">
                    <path id="_81" serif:id="8" d="M1180,170.014C1180,158.96 1171.04,150 1159.99,150C1137.79,150 1102.19,150 1080,150C1074.7,150 1069.61,152.107 1065.86,155.858C1062.11,159.609 1060,164.696 1060,170L1060,229.986C1060,241.04 1068.96,250 1080.01,250C1102.21,250 1137.79,250 1159.99,250C1171.04,250 1180,241.04 1180,229.986C1180,212.563 1180,187.437 1180,170.014ZM1160,210L1080,210L1080,230L1160,230L1160,210ZM1160,170L1080,170L1080,190L1160,190L1160,170Z" style="fill:rgb(235,235,235);"/>
                </g>
            </g>
            <g id="_7" serif:id="7">
            </g>
            <g id="_6" serif:id="6">
            </g>
            <g id="_5" serif:id="5">
            </g>
            <g id="_4" serif:id="4">
            </g>
            <g id="_3" serif:id="3">
            </g>
            <g id="_2" serif:id="2">
            </g>
            <g id="_1" serif:id="1">
            </g>
            <g id="_0" serif:id="0">
            </g>
        </g>
    </g>
</svg>
