<?xml version="1.0" encoding="UTF-8" standalone="no"?>
<!DOCTYPE svg PUBLIC "-//W3C//DTD SVG 1.1//EN" "http://www.w3.org/Graphics/SVG/1.1/DTD/svg11.dtd">
<svg width="100%" height="100%" viewBox="0 0 140 120" version="1.1" xmlns="http://www.w3.org/2000/svg" xmlns:xlink="http://www.w3.org/1999/xlink" xml:space="preserve" xmlns:serif="http://www.serif.com/" style="fill-rule:evenodd;clip-rule:evenodd;stroke-linejoin:round;stroke-miterlimit:2;">
    <g transform="matrix(1,0,0,1,-40,-90)">
        <g id="Original">
        </g>
        <g id="Export">
            <g id="_-" serif:id="$">
            </g>
            <g id="_-1" serif:id="-">
            </g>
            <g id=":">
            </g>
            <g id="_9" serif:id="9">
            </g>
            <g id="_8" serif:id="8">
            </g>
            <g id="_7" serif:id="7">
            </g>
            <g id="_6" serif:id="6">
            </g>
            <g id="_5" serif:id="5">
            </g>
            <g id="_4" serif:id="4">
            </g>
            <g id="_3" serif:id="3">
            </g>
            <g id="_2" serif:id="2">
            </g>
            <g id="_1" serif:id="1">
            </g>
            <g transform="matrix(1,0,0,1,-50,-50)">
                <g id="_0" serif:id="0">
                    <path id="_01" serif:id="0" d="M220,170.014C220,158.96 211.04,150 199.986,150C177.79,150 142.191,150 120,150C114.696,150 109.609,152.107 105.858,155.858C102.107,159.609 100,164.696 100,170L100,229.986C100,241.04 108.96,250 120.014,250C142.206,250 177.794,250 199.986,250C211.04,250 220,241.04 220,229.986C220,212.563 220,187.437 220,170.014ZM200,170L120,170L120,230L200,230L200,170Z" style="fill:rgb(235,235,235);"/>
                </g>
            </g>
        </g>
    </g>
</svg>
