<?xml version="1.0" encoding="UTF-8" standalone="no"?>
<!DOCTYPE svg PUBLIC "-//W3C//DTD SVG 1.1//EN" "http://www.w3.org/Graphics/SVG/1.1/DTD/svg11.dtd">
<svg width="100%" height="100%" viewBox="0 0 140 120" version="1.1" xmlns="http://www.w3.org/2000/svg" xmlns:xlink="http://www.w3.org/1999/xlink" xml:space="preserve" xmlns:serif="http://www.serif.com/" style="fill-rule:evenodd;clip-rule:evenodd;stroke-linejoin:round;stroke-miterlimit:2;">
    <g transform="matrix(1,0,0,1,-320,-90)">
        <g id="Original">
        </g>
        <g id="Export">
            <g id="_-" serif:id="$">
            </g>
            <g id="_-1" serif:id="-">
            </g>
            <g id=":">
            </g>
            <g id="_9" serif:id="9">
            </g>
            <g id="_8" serif:id="8">
            </g>
            <g id="_7" serif:id="7">
            </g>
            <g id="_6" serif:id="6">
            </g>
            <g id="_5" serif:id="5">
            </g>
            <g id="_4" serif:id="4">
            </g>
            <g id="_3" serif:id="3">
            </g>
            <g transform="matrix(1,0,0,1,-110,-50)">
                <g id="_2" serif:id="2">
                    <path id="_21" serif:id="2" d="M440,150L440,170L540,170L540,190L460.031,190C454.718,190 449.623,192.11 445.867,195.867C442.11,199.623 440,204.718 440,210.031C440,227.478 440,250 440,250L560,250L560,230L460,230L460,210L539.969,210C545.282,210 550.377,207.89 554.133,204.133C557.89,200.377 560,195.282 560,189.969C560,183.552 560,176.448 560,170.031C560,164.718 557.89,159.623 554.133,155.867C550.377,152.11 545.282,150 539.969,150C505.823,150 440,150 440,150Z" style="fill:rgb(235,235,235);"/>
                </g>
            </g>
            <g id="_1" serif:id="1">
            </g>
            <g id="_0" serif:id="0">
            </g>
        </g>
    </g>
</svg>
