<?xml version="1.0" encoding="UTF-8" standalone="no"?>
<!DOCTYPE svg PUBLIC "-//W3C//DTD SVG 1.1//EN" "http://www.w3.org/Graphics/SVG/1.1/DTD/svg11.dtd">
<svg width="100%" height="100%" viewBox="0 0 140 120" version="1.1" xmlns="http://www.w3.org/2000/svg" xmlns:xlink="http://www.w3.org/1999/xlink" xml:space="preserve" xmlns:serif="http://www.serif.com/" style="fill-rule:evenodd;clip-rule:evenodd;stroke-linejoin:round;stroke-miterlimit:2;">
    <g transform="matrix(1,0,0,1,-460,-90)">
        <g id="Original">
        </g>
        <g id="Export">
            <g id="_-" serif:id="$">
            </g>
            <g id="_-1" serif:id="-">
            </g>
            <g id=":">
            </g>
            <g id="_9" serif:id="9">
            </g>
            <g id="_8" serif:id="8">
            </g>
            <g id="_7" serif:id="7">
            </g>
            <g id="_6" serif:id="6">
            </g>
            <g id="_5" serif:id="5">
            </g>
            <g id="_4" serif:id="4">
            </g>
            <g transform="matrix(1,0,0,1,-90,-50)">
                <g id="_3" serif:id="3">
                    <path id="_31" serif:id="3" d="M560,150L659.981,150C671.037,150 680,158.963 680,170.019C680,187.44 680,212.56 680,229.981C680,241.037 671.037,250 659.981,250C625.839,250 560,250 560,250L560,230L660,230L660,210L580,210L580,190L660,190L660,170L560,170L560,150Z" style="fill:rgb(235,235,235);"/>
                </g>
            </g>
            <g id="_2" serif:id="2">
            </g>
            <g id="_1" serif:id="1">
            </g>
            <g id="_0" serif:id="0">
            </g>
        </g>
    </g>
</svg>
