<?xml version="1.0" encoding="UTF-8" standalone="no"?>
<!DOCTYPE svg PUBLIC "-//W3C//DTD SVG 1.1//EN" "http://www.w3.org/Graphics/SVG/1.1/DTD/svg11.dtd">
<svg width="100%" height="100%" viewBox="0 0 140 120" version="1.1" xmlns="http://www.w3.org/2000/svg" xmlns:xlink="http://www.w3.org/1999/xlink" xml:space="preserve" xmlns:serif="http://www.serif.com/" style="fill-rule:evenodd;clip-rule:evenodd;stroke-linejoin:round;stroke-miterlimit:2;">
    <g transform="matrix(1,0,0,1,-880,-90)">
        <g id="Original">
        </g>
        <g id="Export">
            <g id="_-" serif:id="$">
            </g>
            <g id="_-1" serif:id="-">
            </g>
            <g id=":">
            </g>
            <g id="_9" serif:id="9">
            </g>
            <g id="_8" serif:id="8">
            </g>
            <g id="_7" serif:id="7">
            </g>
            <g transform="matrix(1,0,0,1,70,-50)">
                <g id="_6" serif:id="6">
                    <path d="M940,150L839.972,150C834.675,150 829.595,152.104 825.85,155.85C822.104,159.595 820,164.675 820,169.972L820,230.028C820,235.325 822.104,240.405 825.85,244.15C829.595,247.896 834.675,250 839.972,250C862.175,250 897.825,250 920.028,250C925.325,250 930.405,247.896 934.15,244.15C937.896,240.405 940,235.325 940,230.028L940,209.972C940,204.675 937.896,199.595 934.15,195.85C930.405,192.104 925.325,190 920.028,190L840,190L840,170L940,170L940,150ZM840,210L920,210L920,230L840,230L840,210Z" style="fill:rgb(235,235,235);"/>
                </g>
            </g>
            <g id="_5" serif:id="5">
            </g>
            <g id="_4" serif:id="4">
            </g>
            <g id="_3" serif:id="3">
            </g>
            <g id="_2" serif:id="2">
            </g>
            <g id="_1" serif:id="1">
            </g>
            <g id="_0" serif:id="0">
            </g>
        </g>
    </g>
</svg>
