<?xml version="1.0" encoding="UTF-8" standalone="no"?>
<!DOCTYPE svg PUBLIC "-//W3C//DTD SVG 1.1//EN" "http://www.w3.org/Graphics/SVG/1.1/DTD/svg11.dtd">
<svg width="100%" height="100%" viewBox="0 0 140 120" version="1.1" xmlns="http://www.w3.org/2000/svg" xmlns:xlink="http://www.w3.org/1999/xlink" xml:space="preserve" xmlns:serif="http://www.serif.com/" style="fill-rule:evenodd;clip-rule:evenodd;stroke-linejoin:round;stroke-miterlimit:2;">
    <g transform="matrix(1,0,0,1,-1560,-90)">
        <g id="Original">
        </g>
        <g id="Export">
            <g id="_-" serif:id="$" transform="matrix(1,0,0,1,30,-50)">
                <path id="_-1" serif:id="$" d="M1610,150L1610,140L1590,140L1590,150L1560.03,150C1554.72,150 1549.62,152.11 1545.87,155.866C1542.11,159.623 1540,164.717 1540,170.029L1540,190.032C1540,195.328 1542.1,200.407 1545.85,204.152C1549.59,207.896 1554.67,210 1559.97,210L1590,210L1590,230L1540,230L1540,250L1590,250L1590,260L1610,260L1610,250L1640.02,250C1651.05,250 1660,241.054 1660,230.017C1660,223.572 1660,216.428 1660,209.983C1660,198.946 1651.05,190 1640.02,190L1610,190L1610,170L1660,170L1660,150L1610,150ZM1610,210L1610,230L1640,230L1640,210L1610,210ZM1590,170L1560,170L1560,190L1590,190L1590,170Z" style="fill:rgb(235,235,235);"/>
            </g>
            <g id="_-2" serif:id="-">
            </g>
            <g id=":">
            </g>
            <g id="_9" serif:id="9">
            </g>
            <g id="_8" serif:id="8">
            </g>
            <g id="_7" serif:id="7">
            </g>
            <g id="_6" serif:id="6">
            </g>
            <g id="_5" serif:id="5">
            </g>
            <g id="_4" serif:id="4">
            </g>
            <g id="_3" serif:id="3">
            </g>
            <g id="_2" serif:id="2">
            </g>
            <g id="_1" serif:id="1">
            </g>
            <g id="_0" serif:id="0">
            </g>
        </g>
    </g>
</svg>
