<?xml version="1.0" encoding="UTF-8" standalone="no"?>
<!DOCTYPE svg PUBLIC "-//W3C//DTD SVG 1.1//EN" "http://www.w3.org/Graphics/SVG/1.1/DTD/svg11.dtd">
<svg width="100%" height="100%" viewBox="0 0 140 120" version="1.1" xmlns="http://www.w3.org/2000/svg" xmlns:xlink="http://www.w3.org/1999/xlink" xml:space="preserve" xmlns:serif="http://www.serif.com/" style="fill-rule:evenodd;clip-rule:evenodd;stroke-linejoin:round;stroke-miterlimit:2;">
    <g transform="matrix(1,0,0,1,-1300,-90)">
        <g id="Original">
        </g>
        <g id="Export">
            <g id="_-" serif:id="$">
            </g>
            <g id="_-1" serif:id="-">
            </g>
            <g id=":">
            </g>
            <g transform="matrix(1,0,0,1,130,-50)">
                <g id="_9" serif:id="9">
                    <path id="_91" serif:id="9" d="M1180,250L1280.03,250C1285.33,250 1290.4,247.896 1294.15,244.15C1297.9,240.405 1300,235.325 1300,230.028L1300,169.972C1300,164.675 1297.9,159.595 1294.15,155.85C1290.4,152.104 1285.33,150 1280.03,150C1257.83,150 1222.17,150 1199.97,150C1194.67,150 1189.6,152.104 1185.85,155.85C1182.1,159.595 1180,164.675 1180,169.972L1180,190.028C1180,195.325 1182.1,200.405 1185.85,204.15C1189.6,207.896 1194.67,210 1199.97,210L1280,210L1280,230L1180,230L1180,250ZM1280,190L1200,190L1200,170L1280,170L1280,190Z" style="fill:rgb(235,235,235);"/>
                </g>
            </g>
            <g id="_8" serif:id="8">
            </g>
            <g id="_7" serif:id="7">
            </g>
            <g id="_6" serif:id="6">
            </g>
            <g id="_5" serif:id="5">
            </g>
            <g id="_4" serif:id="4">
            </g>
            <g id="_3" serif:id="3">
            </g>
            <g id="_2" serif:id="2">
            </g>
            <g id="_1" serif:id="1">
            </g>
            <g id="_0" serif:id="0">
            </g>
        </g>
    </g>
</svg>
